# xmcd CD database file
#
# Track frame offsets:
#	150
#	19802
#	40062
#	57855
#	80842
#	95320
#	116732
#	141827
#	158305
#	181625
#	208502
#	226827
#	251252
#	281200
#
# Disc length: 4440 seconds
#
# Revision: 0
# Processed by: cddbd v1.5PL3 Copyright (c) Steve Scherf et al.
# Submitted via: CDex 1.51
#
DISCID=af11560e
DTITLE=CORE OF SOUL - 'Over the Time' TIME IS OVER
DYEAR=1900
DGENRE=Pop
TTITLE0=Kaleidscope
TTITLE1=花環
TTITLE2=Somebody Loves You
TTITLE3=月で待つ君
TTITLE4=Untitled
TTITLE5=Flying People
TTITLE6=PEACE
TTITLE7=僕と金魚
TTITLE8=I Can Hear You
TTITLE9=Alone on the Beach
TTITLE10=November Rain
TTITLE11=Tears to Rain
TTITLE12=目覚めの光
TTITLE13=CCCD
EXTD=
EXTT0=
EXTT1=
EXTT2=
EXTT3=
EXTT4=
EXTT5=
EXTT6=
EXTT7=
EXTT8=
EXTT9=
EXTT10=
EXTT11=
EXTT12=
EXTT13=
PLAYORDER=
